<mxfile host="Electron" agent="Mozilla/5.0 (Windows NT 10.0; Win64; x64) AppleWebKit/537.36 (KHTML, like Gecko) draw.io/26.1.1 Chrome/132.0.6834.210 Electron/34.3.3 Safari/537.36" version="26.1.1">
  <diagram id="C5RBs43oDa-KdzZeNtuy" name="Page-1">
    <mxGraphModel dx="2208" dy="808" grid="1" gridSize="10" guides="1" tooltips="1" connect="1" arrows="1" fold="1" page="1" pageScale="1" pageWidth="827" pageHeight="1169" math="0" shadow="0">
      <root>
        <mxCell id="WIyWlLk6GJQsqaUBKTNV-0" />
        <mxCell id="WIyWlLk6GJQsqaUBKTNV-1" parent="WIyWlLk6GJQsqaUBKTNV-0" />
        <mxCell id="ebLWR93a3B7pIYOksC4Y-23" value="" style="rounded=0;whiteSpace=wrap;html=1;fillColor=#99FFFF;opacity=20;container=0;" parent="WIyWlLk6GJQsqaUBKTNV-1" vertex="1">
          <mxGeometry x="-40" y="60" width="1210" height="460" as="geometry" />
        </mxCell>
        <mxCell id="ebLWR93a3B7pIYOksC4Y-21" value="" style="rounded=0;whiteSpace=wrap;html=1;fillColor=#CCFF99;fillStyle=auto;shadow=0;strokeColor=#10739e;opacity=20;container=0;" parent="WIyWlLk6GJQsqaUBKTNV-1" vertex="1">
          <mxGeometry x="-40" y="520" width="1210" height="465" as="geometry" />
        </mxCell>
        <mxCell id="zkfFHV4jXpPFQw0GAbJ--0" value="connect.sid" style="swimlane;fontStyle=2;align=center;verticalAlign=middle;childLayout=stackLayout;horizontal=1;startSize=26;horizontalStack=0;resizeParent=1;resizeLast=0;collapsible=1;marginBottom=0;rounded=0;shadow=0;strokeWidth=1;fontSize=18;container=0;" parent="WIyWlLk6GJQsqaUBKTNV-1" vertex="1">
          <mxGeometry x="-10" y="90" width="670" height="150" as="geometry">
            <mxRectangle x="230" y="140" width="160" height="26" as="alternateBounds" />
          </mxGeometry>
        </mxCell>
        <mxCell id="zkfFHV4jXpPFQw0GAbJ--6" value="session_active_mongo_db" style="swimlane;fontStyle=0;align=center;verticalAlign=middle;childLayout=stackLayout;horizontal=1;startSize=26;horizontalStack=0;resizeParent=1;resizeLast=0;collapsible=1;marginBottom=0;rounded=0;shadow=0;strokeWidth=1;strokeColor=default;fontSize=18;container=0;" parent="WIyWlLk6GJQsqaUBKTNV-1" vertex="1">
          <mxGeometry x="-10" y="550" width="360" height="186" as="geometry">
            <mxRectangle x="130" y="380" width="160" height="26" as="alternateBounds" />
          </mxGeometry>
        </mxCell>
        <mxCell id="zkfFHV4jXpPFQw0GAbJ--12" value="" style="endArrow=classic;endSize=10;endFill=1;shadow=0;strokeWidth=1;rounded=0;curved=0;edgeStyle=elbowEdgeStyle;elbow=vertical;" parent="WIyWlLk6GJQsqaUBKTNV-1" source="zkfFHV4jXpPFQw0GAbJ--6" target="zkfFHV4jXpPFQw0GAbJ--0" edge="1">
          <mxGeometry width="160" relative="1" as="geometry">
            <mxPoint x="200" y="203" as="sourcePoint" />
            <mxPoint x="200" y="203" as="targetPoint" />
            <Array as="points">
              <mxPoint x="170" y="400" />
              <mxPoint x="410" y="420" />
            </Array>
          </mxGeometry>
        </mxCell>
        <mxCell id="zkfFHV4jXpPFQw0GAbJ--13" value="session_logout_mongo_db" style="swimlane;fontStyle=0;align=center;verticalAlign=middle;childLayout=stackLayout;horizontal=1;startSize=26;horizontalStack=0;resizeParent=1;resizeLast=0;collapsible=1;marginBottom=0;rounded=0;shadow=0;strokeWidth=1;fontSize=18;container=0;" parent="WIyWlLk6GJQsqaUBKTNV-1" vertex="1">
          <mxGeometry x="-20" y="780" width="380" height="170" as="geometry">
            <mxRectangle x="340" y="380" width="170" height="26" as="alternateBounds" />
          </mxGeometry>
        </mxCell>
        <mxCell id="zkfFHV4jXpPFQw0GAbJ--16" value="" style="endArrow=block;endSize=10;endFill=0;shadow=0;strokeWidth=1;rounded=0;curved=0;edgeStyle=elbowEdgeStyle;elbow=vertical;entryX=0.502;entryY=0.993;entryDx=0;entryDy=0;entryPerimeter=0;" parent="WIyWlLk6GJQsqaUBKTNV-1" source="zkfFHV4jXpPFQw0GAbJ--13" target="ebLWR93a3B7pIYOksC4Y-6" edge="1">
          <mxGeometry width="160" relative="1" as="geometry">
            <mxPoint x="210" y="373" as="sourcePoint" />
            <mxPoint x="310" y="271" as="targetPoint" />
          </mxGeometry>
        </mxCell>
        <mxCell id="ebLWR93a3B7pIYOksC4Y-7" value="jwt" style="swimlane;fontStyle=0;align=center;verticalAlign=middle;childLayout=stackLayout;horizontal=1;startSize=26;horizontalStack=0;resizeParent=1;resizeLast=0;collapsible=1;marginBottom=0;rounded=0;shadow=0;strokeWidth=1;strokeColor=default;fillColor=default;whiteSpace=wrap;fontSize=18;container=0;" parent="WIyWlLk6GJQsqaUBKTNV-1" vertex="1">
          <mxGeometry x="670" y="310" width="290" height="200" as="geometry">
            <mxRectangle x="130" y="380" width="160" height="26" as="alternateBounds" />
          </mxGeometry>
        </mxCell>
        <mxCell id="ebLWR93a3B7pIYOksC4Y-17" style="edgeStyle=orthogonalEdgeStyle;rounded=0;orthogonalLoop=1;jettySize=auto;html=1;exitX=0.5;exitY=0;exitDx=0;exitDy=0;entryX=0.098;entryY=1.036;entryDx=0;entryDy=0;entryPerimeter=0;" parent="WIyWlLk6GJQsqaUBKTNV-1" source="ebLWR93a3B7pIYOksC4Y-7" edge="1">
          <mxGeometry relative="1" as="geometry">
            <mxPoint x="815.04" y="254.67999999999984" as="targetPoint" />
          </mxGeometry>
        </mxCell>
        <mxCell id="ebLWR93a3B7pIYOksC4Y-19" style="edgeStyle=orthogonalEdgeStyle;rounded=0;orthogonalLoop=1;jettySize=auto;html=1;exitX=0.75;exitY=0;exitDx=0;exitDy=0;entryX=0.045;entryY=0.995;entryDx=0;entryDy=0;entryPerimeter=0;" parent="WIyWlLk6GJQsqaUBKTNV-1" edge="1">
          <mxGeometry relative="1" as="geometry">
            <mxPoint x="170" y="550" as="sourcePoint" />
            <mxPoint x="736.6000000000004" y="249.3499999999999" as="targetPoint" />
            <Array as="points">
              <mxPoint x="170" y="280" />
              <mxPoint x="737" y="280" />
            </Array>
          </mxGeometry>
        </mxCell>
        <mxCell id="ebLWR93a3B7pIYOksC4Y-20" style="edgeStyle=orthogonalEdgeStyle;rounded=0;orthogonalLoop=1;jettySize=auto;html=1;exitX=0.5;exitY=0;exitDx=0;exitDy=0;entryX=0.5;entryY=1;entryDx=0;entryDy=0;" parent="WIyWlLk6GJQsqaUBKTNV-1" source="ebLWR93a3B7pIYOksC4Y-3" target="ebLWR93a3B7pIYOksC4Y-7" edge="1">
          <mxGeometry relative="1" as="geometry" />
        </mxCell>
        <mxCell id="ebLWR93a3B7pIYOksC4Y-22" value="&lt;font style=&quot;font-size: 19px;&quot;&gt;MongoDB&lt;/font&gt;" style="text;html=1;align=center;verticalAlign=middle;whiteSpace=wrap;rounded=0;fontStyle=1;fontColor=#009900;container=0;" parent="WIyWlLk6GJQsqaUBKTNV-1" vertex="1">
          <mxGeometry x="575.5037886636082" y="935" width="210.51724137931038" height="50" as="geometry" />
        </mxCell>
        <mxCell id="ebLWR93a3B7pIYOksC4Y-29" value="_id: &#39;67c6fc5ea061c30017b01334&#39;" style="swimlane;fontStyle=0;align=center;verticalAlign=middle;childLayout=stackLayout;horizontal=1;startSize=26;horizontalStack=0;resizeParent=1;resizeLast=0;collapsible=1;marginBottom=0;rounded=0;shadow=0;strokeWidth=1;strokeColor=default;fontColor=#00CC00;fontSize=16;container=0;" parent="WIyWlLk6GJQsqaUBKTNV-1" vertex="1">
          <mxGeometry x="920" y="550" width="240" height="126" as="geometry">
            <mxRectangle x="130" y="380" width="160" height="26" as="alternateBounds" />
          </mxGeometry>
        </mxCell>
        <mxCell id="ebLWR93a3B7pIYOksC4Y-3" value="account_mongo_db" style="swimlane;fontStyle=0;align=center;verticalAlign=middle;childLayout=stackLayout;horizontal=1;startSize=26;horizontalStack=0;resizeParent=1;resizeLast=0;collapsible=1;marginBottom=0;rounded=0;shadow=0;strokeWidth=1;fontSize=18;container=0;" parent="WIyWlLk6GJQsqaUBKTNV-1" vertex="1">
          <mxGeometry x="400" y="550" width="480" height="156" as="geometry">
            <mxRectangle x="340" y="380" width="170" height="26" as="alternateBounds" />
          </mxGeometry>
        </mxCell>
        <mxCell id="ebLWR93a3B7pIYOksC4Y-31" style="edgeStyle=orthogonalEdgeStyle;rounded=0;orthogonalLoop=1;jettySize=auto;html=1;entryX=0.996;entryY=0.104;entryDx=0;entryDy=0;entryPerimeter=0;" parent="WIyWlLk6GJQsqaUBKTNV-1" source="ebLWR93a3B7pIYOksC4Y-30" target="ebLWR93a3B7pIYOksC4Y-11" edge="1">
          <mxGeometry relative="1" as="geometry">
            <Array as="points">
              <mxPoint x="920" y="590" />
              <mxPoint x="920" y="590" />
            </Array>
          </mxGeometry>
        </mxCell>
        <mxCell id="ebLWR93a3B7pIYOksC4Y-30" value="_id = &amp;gt; ObjectId()&lt;br&gt;Timestamp (4 byte) =&amp;gt; unix timestamp,&lt;div&gt;Machine ID (3byte)&lt;/div&gt;&lt;div&gt;Process ID (2byte)&lt;/div&gt;&lt;div&gt;Counter (3byte)&lt;br&gt;&lt;div&gt;&lt;br&gt;&lt;/div&gt;&lt;/div&gt;" style="text;html=1;align=left;verticalAlign=middle;resizable=0;points=[];autosize=1;strokeColor=none;fillColor=none;container=0;" parent="WIyWlLk6GJQsqaUBKTNV-1" vertex="1">
          <mxGeometry x="920" y="576" width="240" height="100" as="geometry" />
        </mxCell>
        <mxCell id="ebLWR93a3B7pIYOksC4Y-11" value="{&lt;br style=&quot;padding: 0px; margin: 0px;&quot;&gt;&amp;nbsp; &amp;nbsp;&lt;font style=&quot;color: rgb(0, 204, 0);&quot;&gt; _id: ObjectId(&#39;67c6fc5ea061c30017b01334&#39;),&lt;/font&gt;&lt;br style=&quot;padding: 0px; margin: 0px;&quot;&gt;&amp;nbsp; &amp;nbsp; roles: [ &#39;admin&#39; ],&lt;br style=&quot;padding: 0px; margin: 0px;&quot;&gt;&amp;nbsp; &amp;nbsp; &lt;font style=&quot;color: rgb(0, 204, 204);&quot;&gt;username: &#39;admin&#39;,&lt;/font&gt;&lt;br style=&quot;padding: 0px; margin: 0px;&quot;&gt;&amp;nbsp; &amp;nbsp; salt: &#39;c3d09dfd6a65fd6c31bb2d83402f2867da01592b2fd8ed87be769268fe394604&#39;,&lt;br style=&quot;padding: 0px; margin: 0px;&quot;&gt;&amp;nbsp; &amp;nbsp; hash: &#39;51f49640aee218f1a6e87bce7f28e52ee1746b18a2d..........&#39;,&lt;br style=&quot;padding: 0px; margin: 0px;&quot;&gt;&amp;nbsp; &amp;nbsp; __v: 0&lt;br style=&quot;padding: 0px; margin: 0px;&quot;&gt;&lt;div style=&quot;&quot;&gt;&lt;span style=&quot;background-color: transparent; color: light-dark(rgb(0, 0, 0), rgb(255, 255, 255));&quot;&gt;&amp;nbsp; },&lt;/span&gt;&lt;/div&gt;" style="text;html=1;align=left;verticalAlign=middle;resizable=0;points=[];autosize=1;strokeColor=none;fillColor=none;container=0;" parent="WIyWlLk6GJQsqaUBKTNV-1" vertex="1">
          <mxGeometry x="400" y="576" width="480" height="130" as="geometry" />
        </mxCell>
        <mxCell id="ebLWR93a3B7pIYOksC4Y-24" value="&lt;font style=&quot;font-size: 19px; color: rgb(0, 102, 204);&quot;&gt;Browser&lt;/font&gt;" style="text;html=1;align=center;verticalAlign=middle;whiteSpace=wrap;rounded=0;fontStyle=1;fontColor=#009900;container=0;" parent="WIyWlLk6GJQsqaUBKTNV-1" vertex="1">
          <mxGeometry x="-10" y="469.99809523809523" width="57.1244635193133" height="43.80952380952381" as="geometry" />
        </mxCell>
        <mxCell id="ebLWR93a3B7pIYOksC4Y-5" value="&lt;div style=&quot;&quot;&gt;&lt;br&gt;&lt;/div&gt;" style="text;html=1;align=left;verticalAlign=middle;resizable=0;points=[];autosize=1;strokeColor=none;fillColor=none;container=0;" parent="WIyWlLk6GJQsqaUBKTNV-1" vertex="1">
          <mxGeometry x="-23.648648648648653" y="160" width="20" height="30" as="geometry" />
        </mxCell>
        <mxCell id="Irm2bHxUr_JTpyvWQRDC-1" value="&lt;div style=&quot;text-align: left; text-wrap-mode: nowrap;&quot;&gt;&lt;span style=&quot;background-color: transparent; color: light-dark(rgb(0, 0, 0), rgb(255, 255, 255));&quot;&gt;DECODED&amp;nbsp;&amp;nbsp;&lt;/span&gt;&lt;span style=&quot;background-color: transparent; color: light-dark(rgb(0, 0, 0), rgb(255, 255, 255)); white-space-collapse: preserve;&quot;&gt;&#x9;&lt;/span&gt;&lt;span style=&quot;background-color: transparent; color: light-dark(rgb(0, 0, 0), rgb(255, 255, 255));&quot;&gt;s:&lt;/span&gt;&lt;font style=&quot;background-color: transparent; color: rgb(255, 153, 51);&quot;&gt;yZ1EQxOVU4wpgSPziI1xD9jTo0ZVt6Xw&lt;/font&gt;&lt;span style=&quot;background-color: transparent; color: light-dark(rgb(0, 0, 0), rgb(255, 255, 255));&quot;&gt;.z6T1T2jbkFYcTQFrP8doanC9yXlVElRQmwk0gGT/Hj4&lt;/span&gt;&lt;/div&gt;&lt;blockquote style=&quot;text-align: left; text-wrap-mode: nowrap; margin: 0px 0px 0px 40px; border: none; padding: 0px;&quot;&gt;&lt;blockquote style=&quot;margin: 0px 0px 0px 40px; border: none; padding: 0px;&quot;&gt;s:&lt;/blockquote&gt;&lt;blockquote style=&quot;margin: 0px 0px 0px 40px; border: none; padding: 0px;&quot;&gt;&lt;font style=&quot;color: rgb(255, 153, 51);&quot;&gt;_id : id della sessione attiva&lt;/font&gt;&lt;/blockquote&gt;&lt;blockquote style=&quot;margin: 0px 0px 0px 40px; border: none; padding: 0px;&quot;&gt;firma HMAC: con chiave &quot;&lt;font style=&quot;color: rgb(255, 0, 0);&quot;&gt;change-me&lt;/font&gt;&quot;&lt;/blockquote&gt;&lt;/blockquote&gt;" style="text;html=1;align=center;verticalAlign=middle;whiteSpace=wrap;rounded=0;container=0;" vertex="1" parent="WIyWlLk6GJQsqaUBKTNV-1">
          <mxGeometry x="-10" y="140" width="670" height="100" as="geometry" />
        </mxCell>
        <mxCell id="ebLWR93a3B7pIYOksC4Y-10" value="key: &lt;font style=&quot;color: rgb(255, 0, 0);&quot;&gt;change-me&lt;/font&gt;" style="text;html=1;align=left;verticalAlign=middle;resizable=0;points=[];autosize=1;strokeColor=none;fillColor=none;labelBorderColor=none;container=0;" parent="WIyWlLk6GJQsqaUBKTNV-1" vertex="1">
          <mxGeometry x="669.9966878643348" y="476.9" width="290" height="30" as="geometry" />
        </mxCell>
        <mxCell id="ebLWR93a3B7pIYOksC4Y-9" value="&lt;div&gt;{&lt;/div&gt;&lt;div&gt;&amp;nbsp; &quot;user&quot;: {&lt;/div&gt;&lt;div&gt;&amp;nbsp; &amp;nbsp; &lt;font style=&quot;color: rgb(0, 204, 0);&quot;&gt;&quot;_id&quot;: &quot;67c6fc5ea061c30017b01334&quot;,&lt;/font&gt;&lt;/div&gt;&lt;div&gt;&amp;nbsp; &amp;nbsp; &lt;font style=&quot;color: rgb(0, 204, 204);&quot;&gt;&quot;username&quot;: &quot;admin&quot;,&lt;/font&gt;&lt;/div&gt;&lt;div&gt;&amp;nbsp; &amp;nbsp; &quot;roles&quot;: [&lt;span style=&quot;background-color: transparent; color: light-dark(rgb(0, 0, 0), rgb(255, 255, 255));&quot;&gt;&quot;admin&quot;&lt;/span&gt;&lt;span style=&quot;background-color: transparent; color: light-dark(rgb(0, 0, 0), rgb(255, 255, 255));&quot;&gt;]&lt;/span&gt;&lt;span style=&quot;background-color: transparent; color: light-dark(rgb(0, 0, 0), rgb(255, 255, 255));&quot;&gt;},&lt;/span&gt;&lt;/div&gt;&lt;div&gt;&amp;nbsp; &quot;iat&quot;: 1742908607&lt;/div&gt;&lt;div&gt;}&lt;/div&gt;" style="text;html=1;align=left;verticalAlign=middle;resizable=0;points=[];autosize=1;strokeColor=none;fillColor=none;container=0;" parent="WIyWlLk6GJQsqaUBKTNV-1" vertex="1">
          <mxGeometry x="669.9966878643348" y="366.9" width="290" height="110" as="geometry" />
        </mxCell>
        <mxCell id="zkfFHV4jXpPFQw0GAbJ--1" value="s%3A&lt;font style=&quot;color: light-dark(rgb(252, 153, 51), rgb(237, 237, 237));&quot;&gt;yZ1EQxOVU4wpgSPziI1xD9jTo0ZVt6Xw&lt;/font&gt;.z6T1T2jbkFYcTQFrP8doanC9yXlVElRQmwk0gGT%2FHj4" style="text;align=left;verticalAlign=top;spacingLeft=4;spacingRight=4;overflow=hidden;rotatable=0;points=[[0,0.5],[1,0.5]];portConstraint=eastwest;whiteSpace=wrap;html=1;strokeColor=default;container=0;" parent="WIyWlLk6GJQsqaUBKTNV-1" vertex="1">
          <mxGeometry x="-10" y="116" width="670" height="24" as="geometry" />
        </mxCell>
        <mxCell id="ebLWR93a3B7pIYOksC4Y-6" value="{&lt;br style=&quot;padding: 0px; margin: 0px;&quot;&gt;&amp;nbsp; &amp;nbsp; &lt;font style=&quot;color: rgb(255, 153, 51);&quot;&gt;_id: &#39;yZ1EQxOVU4wpgSPziI1xD9jTo0ZVt6Xw&#39;,&lt;/font&gt;&lt;br style=&quot;padding: 0px; margin: 0px;&quot;&gt;&amp;nbsp; &amp;nbsp; expires: ISODate(&#39;2025-04-09T08:06:58.590Z&#39;),&lt;br style=&quot;padding: 0px; margin: 0px;&quot;&gt;&amp;nbsp; &amp;nbsp; session: &#39;{&quot;cookie&quot;:{&quot;originalMaxAge&quot;:1209600000,&lt;br style=&quot;padding: 0px; margin: 0px;&quot;&gt;&amp;nbsp;&amp;nbsp;&amp;nbsp;&amp;nbsp;&amp;nbsp;&amp;nbsp;&amp;nbsp;&amp;nbsp;&amp;nbsp;&amp;nbsp;&amp;nbsp;&amp;nbsp;&amp;nbsp;&amp;nbsp;&amp;nbsp;&amp;nbsp;&amp;nbsp;&amp;nbsp;&amp;nbsp;&amp;nbsp;&amp;nbsp;&amp;nbsp;&amp;nbsp;&amp;nbsp;&amp;nbsp;&amp;nbsp;&amp;nbsp;&amp;nbsp;&amp;nbsp;&amp;nbsp;&amp;nbsp;&amp;nbsp;&amp;nbsp;&amp;nbsp;&amp;nbsp;&amp;nbsp;&quot;expires&quot;:&quot;2025-04-08T14:35:44.542Z&quot;,&lt;br style=&quot;padding: 0px; margin: 0px;&quot;&gt;&amp;nbsp;&amp;nbsp;&amp;nbsp;&amp;nbsp;&amp;nbsp;&amp;nbsp;&amp;nbsp;&amp;nbsp;&amp;nbsp;&amp;nbsp;&amp;nbsp;&amp;nbsp;&amp;nbsp;&amp;nbsp;&amp;nbsp;&amp;nbsp;&amp;nbsp;&amp;nbsp;&amp;nbsp;&amp;nbsp;&amp;nbsp;&amp;nbsp;&amp;nbsp;&amp;nbsp;&amp;nbsp;&amp;nbsp;&amp;nbsp;&amp;nbsp;&amp;nbsp;&amp;nbsp;&amp;nbsp;&amp;nbsp;&amp;nbsp;&amp;nbsp;&amp;nbsp;&amp;nbsp;&quot;httpOnly&quot;:true,&lt;br style=&quot;padding: 0px; margin: 0px;&quot;&gt;&amp;nbsp;&amp;nbsp;&amp;nbsp;&amp;nbsp;&amp;nbsp;&amp;nbsp;&amp;nbsp;&amp;nbsp;&amp;nbsp;&amp;nbsp;&amp;nbsp;&amp;nbsp;&amp;nbsp;&amp;nbsp;&amp;nbsp;&amp;nbsp;&amp;nbsp;&amp;nbsp;&amp;nbsp;&amp;nbsp;&amp;nbsp;&amp;nbsp;&amp;nbsp;&amp;nbsp;&amp;nbsp;&amp;nbsp;&amp;nbsp;&amp;nbsp;&amp;nbsp;&amp;nbsp;&amp;nbsp;&amp;nbsp;&amp;nbsp;&amp;nbsp;&amp;nbsp;&amp;nbsp;&quot;path&quot;:&quot;/&quot;},&lt;br style=&quot;padding: 0px; margin: 0px;&quot;&gt;&amp;nbsp;&amp;nbsp;&amp;nbsp;&amp;nbsp;&amp;nbsp;&amp;nbsp;&amp;nbsp;&amp;nbsp;&amp;nbsp;&amp;nbsp;&amp;nbsp;&amp;nbsp;&amp;nbsp;&amp;nbsp;&amp;nbsp;&amp;nbsp;&amp;nbsp;&amp;nbsp;&amp;nbsp;&amp;nbsp;&quot;passport&quot;:&lt;font style=&quot;color: rgb(0, 204, 204);&quot;&gt;{&quot;user&quot;:&quot;admin&quot;&lt;/font&gt;},&lt;br style=&quot;padding: 0px; margin: 0px;&quot;&gt;&amp;nbsp;&amp;nbsp;&amp;nbsp;&amp;nbsp;&amp;nbsp;&amp;nbsp;&amp;nbsp;&amp;nbsp;&amp;nbsp;&amp;nbsp;&amp;nbsp;&amp;nbsp;&amp;nbsp;&amp;nbsp;&amp;nbsp;&amp;nbsp;&amp;nbsp;&amp;nbsp;&amp;nbsp;&amp;nbsp;&quot;_csrfSecret&quot;:&quot;1wdyuItdDshTbg==&quot;}&#39;&lt;br style=&quot;padding: 0px; margin: 0px;&quot;&gt;}" style="text;html=1;align=left;verticalAlign=middle;resizable=0;points=[];autosize=1;strokeColor=none;fillColor=none;container=0;" parent="WIyWlLk6GJQsqaUBKTNV-1" vertex="1">
          <mxGeometry x="-10" y="576" width="360" height="160" as="geometry" />
        </mxCell>
        <mxCell id="zkfFHV4jXpPFQw0GAbJ--14" value="{&#xa;    _id: &#39;LKlwdffpUkjOucDWEJAEyNS9m7QzPKH8&#39;,&#xa;    expires: ISODate(&#39;2025-04-08T13:25:26.995Z&#39;),&#xa;    session: &#39;{&quot;cookie&quot;:{&quot;originalMaxAge&quot;:1209600000,&#xa;                                    &quot;expires&quot;:&quot;2025-04-08T13:25:26.995Z&quot;,&#xa;                                    &quot;httpOnly&quot;:true,&#xa;                                    &quot;path&quot;:&quot;/&quot;},&#xa;                    &quot;_csrfSecret&quot;:&quot;7NyR8Ow1Kc59dw==&quot;}&#39;&#xa;  }" style="text;align=left;verticalAlign=top;spacingLeft=4;spacingRight=4;overflow=hidden;rotatable=0;points=[[0,0.5],[1,0.5]];portConstraint=eastwest;container=0;" parent="WIyWlLk6GJQsqaUBKTNV-1" vertex="1">
          <mxGeometry x="-20" y="806" width="380" height="144" as="geometry" />
        </mxCell>
        <mxCell id="ebLWR93a3B7pIYOksC4Y-13" value="&quot;&lt;font style=&quot;color: rgb(255, 0, 128);&quot;&gt;eyJhbGciOiJIUzI1NiIs...&lt;/font&gt;&lt;span style=&quot;background-color: transparent; color: rgb(255, 0, 128);&quot;&gt;37-GLeZ2iO6Do&lt;/span&gt;&lt;span style=&quot;background-color: transparent; color: rgb(255, 0, 128);&quot;&gt;&lt;font style=&quot;color: rgb(0, 0, 0);&quot;&gt;&quot;&lt;/font&gt;&lt;/span&gt;" style="text;html=1;align=left;verticalAlign=middle;resizable=0;points=[];autosize=1;strokeColor=default;fillColor=none;container=0;" parent="WIyWlLk6GJQsqaUBKTNV-1" vertex="1">
          <mxGeometry x="670" y="336" width="290" height="30" as="geometry" />
        </mxCell>
        <mxCell id="zkfFHV4jXpPFQw0GAbJ--17" value="session local storage" style="swimlane;fontStyle=0;align=center;verticalAlign=middle;childLayout=stackLayout;horizontal=1;startSize=26;horizontalStack=0;resizeParent=1;resizeLast=0;collapsible=1;marginBottom=0;rounded=0;shadow=0;strokeWidth=1;fontSize=18;container=0;" parent="WIyWlLk6GJQsqaUBKTNV-1" vertex="1">
          <mxGeometry x="670" y="90" width="430" height="160" as="geometry">
            <mxRectangle x="550" y="140" width="160" height="26" as="alternateBounds" />
          </mxGeometry>
        </mxCell>
        <mxCell id="Irm2bHxUr_JTpyvWQRDC-4" value="&lt;span style=&quot;text-wrap-mode: nowrap;&quot;&gt;{&quot;clientMaxAge&quot;:60000,&lt;/span&gt;&lt;br style=&quot;text-wrap-mode: nowrap; padding: 0px; margin: 0px;&quot;&gt;&lt;span style=&quot;text-wrap-mode: nowrap;&quot;&gt;&quot;csrfToken&quot;:&quot;&lt;/span&gt;&lt;font style=&quot;text-wrap-mode: nowrap; color: rgb(102, 0, 204);&quot;&gt;Zsg1PgsSXYbddUE5mvF+ewYAGB8ElFKf4S1HM=&lt;/font&gt;&lt;span style=&quot;text-wrap-mode: nowrap;&quot;&gt;&quot;,&lt;/span&gt;&lt;br style=&quot;text-wrap-mode: nowrap; padding: 0px; margin: 0px;&quot;&gt;&lt;span style=&quot;text-wrap-mode: nowrap;&quot;&gt;&quot;user&quot;:{&quot;roles&quot;:[&quot;admin&quot;],&lt;/span&gt;&lt;br style=&quot;text-wrap-mode: nowrap; padding: 0px; margin: 0px;&quot;&gt;&lt;span style=&quot;text-wrap-mode: nowrap;&quot;&gt;&amp;nbsp;&amp;nbsp;&amp;nbsp;&amp;nbsp;&amp;nbsp;&amp;nbsp;&amp;nbsp;&amp;nbsp;&amp;nbsp;&amp;nbsp;&amp;nbsp;&amp;nbsp;&lt;/span&gt;&lt;font style=&quot;text-wrap-mode: nowrap; color: rgb(0, 204, 0);&quot;&gt;&quot;_id&quot;:&quot;67c6fc5ea061c30017b01334&quot;,&lt;/font&gt;&lt;br style=&quot;text-wrap-mode: nowrap; padding: 0px; margin: 0px;&quot;&gt;&lt;span style=&quot;text-wrap-mode: nowrap;&quot;&gt;&amp;nbsp;&amp;nbsp;&amp;nbsp;&amp;nbsp;&amp;nbsp;&amp;nbsp;&amp;nbsp;&amp;nbsp;&amp;nbsp;&amp;nbsp;&amp;nbsp;&amp;nbsp;&lt;/span&gt;&lt;font style=&quot;text-wrap-mode: nowrap; color: rgb(0, 204, 204);&quot;&gt;&quot;username&quot;:&quot;admin&quot;,&lt;/font&gt;&lt;br style=&quot;text-wrap-mode: nowrap; padding: 0px; margin: 0px;&quot;&gt;&lt;span style=&quot;text-wrap-mode: nowrap;&quot;&gt;&amp;nbsp;&amp;nbsp;&amp;nbsp;&amp;nbsp;&amp;nbsp;&amp;nbsp;&amp;nbsp;&amp;nbsp;&amp;nbsp;&amp;nbsp;&amp;nbsp;&amp;nbsp;&quot;__v&quot;:0},&lt;/span&gt;&lt;br style=&quot;text-wrap-mode: nowrap; padding: 0px; margin: 0px;&quot;&gt;&lt;span style=&quot;text-wrap-mode: nowrap;&quot;&gt;&quot;authToken&quot;:&lt;span style=&quot;white-space: pre;&quot;&gt;&#x9;&lt;/span&gt;&quot;&lt;/span&gt;&lt;font style=&quot;text-wrap-mode: nowrap; color: rgb(255, 0, 128);&quot;&gt;eyJhbGciOiJIUzI1NiIs...&lt;/font&gt;&lt;span style=&quot;background-color: transparent; color: rgb(255, 0, 128); text-wrap-mode: nowrap;&quot;&gt;37-GLeZ2iO6Do&lt;/span&gt;&lt;span style=&quot;background-color: transparent; text-wrap-mode: nowrap; color: rgb(255, 0, 128);&quot;&gt;&lt;font style=&quot;color: rgb(0, 0, 0);&quot;&gt;&quot;,&lt;/font&gt;&lt;/span&gt;&lt;div&gt;&lt;div style=&quot;text-wrap-mode: nowrap;&quot;&gt;&lt;span style=&quot;background-color: transparent; color: light-dark(rgb(0, 0, 0), rgb(255, 255, 255));&quot;&gt;&quot;expires&quot;:1742913404564}&lt;/span&gt;&lt;/div&gt;&lt;/div&gt;" style="text;html=1;align=left;verticalAlign=middle;whiteSpace=wrap;rounded=0;container=0;" vertex="1" parent="WIyWlLk6GJQsqaUBKTNV-1">
          <mxGeometry x="670" y="116" width="430" height="134" as="geometry" />
        </mxCell>
      </root>
    </mxGraphModel>
  </diagram>
</mxfile>
